<svg xmlns="http://www.w3.org/2000/svg" width="64" height="64" viewBox="0 0 64 64">
  <g id="组_9" data-name="组 9" transform="translate(920.281 916.283)">
    <path id="路径_67" data-name="路径 67" d="M-820.03-888.758h-4.361a5.778,5.778,0,0,1-2.213,5.047,5.417,5.417,0,0,1-3.856,1.158,5.729,5.729,0,0,1-5.212-6.23h-.659c-1.791,0-3.582,0-5.374,0a1.892,1.892,0,0,1-2.069-2.05c0-6.165-.015-12.33,0-18.5a6.834,6.834,0,0,1,6.928-6.942q18.683-.023,37.365,0a6.825,6.825,0,0,1,6.936,6.933q.025,18.683,0,37.365a6.831,6.831,0,0,1-6.938,6.932c-6.165.02-12.33.008-18.5,0a1.891,1.891,0,0,1-2.053-2.066q-.008-3.874,0-7.748a1.893,1.893,0,0,1,2.063-2.056c.708,0,1.416,0,2.124,0a1.894,1.894,0,0,0,2.057-1.808,1.967,1.967,0,0,0-1.975-1.928c-.748-.035-1.5-.005-2.249-.013a1.888,1.888,0,0,1-2.02-2.037C-820.035-884.694-820.03-886.692-820.03-888.758Zm-.013-23.77h-.667q-7.931,0-15.862,0a3.15,3.15,0,0,0-3.454,3.444q0,7.931,0,15.862v.691c2.022,0,3.956,0,5.89,0,1.538,0,2.232.7,2.234,2.261,0,.687-.01,1.374,0,2.061a1.883,1.883,0,0,0,1.879,1.925,1.885,1.885,0,0,0,1.864-1.94c.013-.749,0-1.5,0-2.248a1.893,1.893,0,0,1,2.061-2.056c1.79-.006,3.58,0,5.371,0h.641v-4.355a5.822,5.822,0,0,1-6.167-5.066,5.377,5.377,0,0,1,.91-3.679,5.814,5.814,0,0,1,5.3-2.545Zm3.762,0c0,2.095.007,4.111,0,6.127a1.88,1.88,0,0,1-2,1.994c-.791.009-1.583-.011-2.374.006a1.8,1.8,0,0,0-1.74,1.194,1.9,1.9,0,0,0,1.838,2.538c.768.041,1.54,0,2.311.015a1.875,1.875,0,0,1,1.963,1.966c.012,1.624,0,3.248,0,4.872v1.284h4.329c.365-3.815,2.309-6.076,5.312-6.238a5.475,5.475,0,0,1,3.792,1.168,5.8,5.8,0,0,1,2.2,5.022h4.359v-.607q0-7.964,0-15.929a3.146,3.146,0,0,0-3.425-3.412q-7.715,0-15.429,0Zm.031,43.742h.638q7.933,0,15.866,0a3.154,3.154,0,0,0,3.461-3.439q0-7.933,0-15.866v-.691c-1.793,0-3.5-.065-5.2.016-2.3.11-3.083-.7-2.925-2.9.031-.435.008-.874,0-1.311a1.894,1.894,0,0,0-1.817-2.048,1.971,1.971,0,0,0-1.921,1.983c-.033.727-.006,1.457-.012,2.186a1.906,1.906,0,0,1-2.105,2.078c-1.374,0-2.748,0-4.123,0h-1.9v4.346c4.033.013,6.034,2.76,6.228,5.183a5.436,5.436,0,0,1-1.019,3.713,5.787,5.787,0,0,1-5.178,2.4Z" transform="translate(-63.753)" fill="#fff"/>
    <path id="路径_68" data-name="路径 68" d="M-892.781-689.146a5.771,5.771,0,0,1,4.928,2.023,5.491,5.491,0,0,1,1.314,3.806c-.086,3.143-2.344,5.143-6.242,5.466v.653c0,1.791.005,3.582,0,5.373a1.891,1.891,0,0,1-2.064,2.055c-6.164,0-12.328.016-18.491,0a6.841,6.841,0,0,1-6.933-6.936c-.019-6.164-.007-12.328,0-18.492a1.888,1.888,0,0,1,2.057-2.06q3.873-.008,7.746,0a1.894,1.894,0,0,1,2.066,2.053c.006.708,0,1.416,0,2.124a1.9,1.9,0,0,0,1.8,2.068,1.965,1.965,0,0,0,1.939-1.963c.038-.748.008-1.5.015-2.248a1.887,1.887,0,0,1,2.023-2.033q3.9-.01,7.809,0a1.883,1.883,0,0,1,2.038,2.017c.009,1.812,0,3.623,0,5.435Zm-23.746-4.342v.631q0,7.967,0,15.935a3.146,3.146,0,0,0,3.436,3.4q7.936,0,15.872,0h.688c0-2.109-.007-4.128,0-6.147a1.873,1.873,0,0,1,1.954-1.975c.771-.011,1.542.006,2.312,0a1.885,1.885,0,0,0,1.977-1.893,1.883,1.883,0,0,0-1.953-1.852c-.729-.011-1.458,0-2.187,0a1.9,1.9,0,0,1-2.1-2.079c-.005-1.291,0-2.583,0-3.874v-2.133h-4.326c-.431,3.859-2.359,6.076-5.374,6.2a5.494,5.494,0,0,1-3.732-1.171,5.807,5.807,0,0,1-2.206-5.044Z" transform="translate(0 -182.52)" fill="#21ffc7"/>
  </g>
</svg>
