<svg xmlns="http://www.w3.org/2000/svg" width="64" height="64" viewBox="0 0 64 64">
  <g id="组_5" data-name="组 5" transform="translate(484.507 143.754)">
    <path id="路径_42" data-name="路径 42" d="M-272.585-45.415l-6.146-6.128c-.192-.191-.388-.377-.573-.575a1.055,1.055,0,0,1-.059-1.6,1.077,1.077,0,0,1,1.559.1q3.651,3.633,7.286,7.283a1.056,1.056,0,0,1-.012,1.692q-3.609,3.631-7.239,7.242a1.072,1.072,0,0,1-1.646.1,1.064,1.064,0,0,1,.141-1.6q3.038-3.055,6.094-6.091A4.339,4.339,0,0,1-272.585-45.415Z" transform="translate(-170.659 -74.789)" fill="#21ffc7"/>
    <path id="路径_43" data-name="路径 43" d="M-411.589-45.577l6.282,6.291a5.723,5.723,0,0,1,.474.5,1.065,1.065,0,0,1-.07,1.423,1.041,1.041,0,0,1-1.42.062,3.281,3.281,0,0,1-.319-.3q-3.491-3.491-6.98-6.983c-.744-.745-.749-1.221-.009-1.962q3.509-3.516,7.028-7.024a1.8,1.8,0,0,1,.533-.424,1.013,1.013,0,0,1,1.283.329,1.029,1.029,0,0,1-.138,1.416c-.914.942-1.85,1.862-2.778,2.79Z" transform="translate(-58.604 -74.714)" fill="#21ffc7"/>
    <path id="路径_44" data-name="路径 44" d="M-342.362-37.057a1.079,1.079,0,0,1-1.04-1.591c.7-1.669,1.42-3.327,2.132-4.99q2.039-4.758,4.085-9.514a1.928,1.928,0,0,1,.521-.749.947.947,0,0,1,1.217.029,1.037,1.037,0,0,1,.3,1.343l-2.36,5.5q-1.941,4.529-3.878,9.06C-341.59-37.472-341.872-37.1-342.362-37.057Z" transform="translate(-117.493 -74.704)" fill="#21ffc7"/>
    <path id="路径_45" data-name="路径 45" d="M-306.344,98.461c0,.733.009,1.377,0,2.02a1.081,1.081,0,0,1-1.085,1.184,1.084,1.084,0,0,1-1.038-1.172c-.013-.644,0-1.289,0-2.032-.584,0-1.138,0-1.691,0-1.009,0-1.517-.368-1.5-1.079s.524-1.054,1.54-1.056h1.654c0-.664-.006-1.3,0-1.938.009-.792.416-1.247,1.089-1.234.646.013,1.027.456,1.036,1.221.007.621,0,1.242,0,1.951.663,0,1.28-.007,1.9,0,.826.012,1.327.442,1.3,1.1-.021.639-.5,1.017-1.306,1.027C-305.05,98.467-305.651,98.461-306.344,98.461Z" transform="translate(-144.033 -197.424)" fill="#fff"/>
    <path id="路径_46" data-name="路径 46" d="M-214.079,139.951c-1.062.018-1.58-.332-1.582-1.049s.513-1.074,1.575-1.073a5.088,5.088,0,0,1,.622.019,1.05,1.05,0,0,1,.991,1.078,1.047,1.047,0,0,1-.984,1.021A5.056,5.056,0,0,1-214.079,139.951Z" transform="translate(-224.038 -234.652)" fill="#fff"/>
    <path id="路径_47" data-name="路径 47" d="M-246.056,140.008a4.607,4.607,0,0,1-.739-.078.97.97,0,0,1-.781-1.052.921.921,0,0,1,.8-.967,5.965,5.965,0,0,1,1.424-.028.986.986,0,0,1,.934,1.046,1.01,1.01,0,0,1-.953,1.035,5.456,5.456,0,0,1-.683,0Z" transform="translate(-197.442 -234.674)" fill="#fff"/>
    <path id="路径_48" data-name="路径 48" d="M-182.136,114.316c-1.06.009-1.576-.35-1.557-1.074.019-.7.534-1.051,1.544-1.049a4.369,4.369,0,0,1,.745.034,1.052,1.052,0,0,1,.9,1.1,1.051,1.051,0,0,1-1.014.991C-181.719,114.331-181.928,114.316-182.136,114.316Z" transform="translate(-250.679 -213.289)" fill="#fff"/>
    <path id="路径_49" data-name="路径 49" d="M-164.419,126.633c-.006-1.033.322-1.526,1.022-1.544.73-.019,1.1.5,1.1,1.55a4.18,4.18,0,0,1-.035.745,1.055,1.055,0,0,1-1.106.893,1.042,1.042,0,0,1-.982-1.02C-164.433,127.049-164.419,126.84-164.419,126.633Z" transform="translate(-266.736 -224.035)" fill="#fff"/>
    <path id="路径_50" data-name="路径 50" d="M-164.439,94.7c0-.125,0-.249,0-.374.025-.725.394-1.148,1.016-1.168a1.069,1.069,0,0,1,1.112,1.153c.013.269.011.54,0,.809-.028.751-.427,1.2-1.066,1.2s-1.04-.432-1.063-1.185C-164.442,94.99-164.439,94.845-164.439,94.7Z" transform="translate(-266.723 -197.426)" fill="#fff"/>
    <path id="路径_51" data-name="路径 51" d="M-150.037,114.327a4.827,4.827,0,0,1-.621,0,.959.959,0,0,1-.912-.936.934.934,0,0,1,.78-1.1,5.225,5.225,0,0,1,1.482-.031.99.99,0,0,1,.89,1.087,1.011,1.011,0,0,1-1,.992c-.206.018-.415,0-.622,0Z" transform="translate(-277.442 -213.308)" fill="#fff"/>
    <path id="路径_52" data-name="路径 52" d="M-218.386-116.09c-.831,0-1.662.01-2.492,0a1.039,1.039,0,0,1-1.149-1.04,1.05,1.05,0,0,1,1.12-1.08q2.585-.026,5.172,0a1.071,1.071,0,0,1,1.157,1.051,1.074,1.074,0,0,1-1.191,1.071C-216.641-116.081-217.513-116.089-218.386-116.09Z" transform="translate(-218.734 -21.274)" fill="#21ffc7"/>
    <path id="路径_53" data-name="路径 53" d="M-457.341-116.075c-1.059.006-1.582-.353-1.568-1.069s.54-1.056,1.6-1.054a4.252,4.252,0,0,1,.684.023,1.078,1.078,0,0,1,.913,1.1,1.063,1.063,0,0,1-1.008,1C-456.924-116.061-457.133-116.075-457.341-116.075Z" transform="translate(-21.331 -21.294)" fill="#21ffc7"/>
    <path id="路径_54" data-name="路径 54" d="M-393.267-116.078c-1.076,0-1.572-.334-1.567-1.063s.508-1.065,1.581-1.064a5.1,5.1,0,0,1,.623.013,1.065,1.065,0,0,1,.976,1.1,1.043,1.043,0,0,1-1.052,1.014C-392.893-116.068-393.08-116.078-393.267-116.078Z" transform="translate(-74.727 -21.288)" fill="#21ffc7"/>
    <path id="路径_55" data-name="路径 55" d="M-425.262-116.1c-.124,0-.249,0-.374,0-.746-.022-1.186-.425-1.176-1.075a1.069,1.069,0,0,1,1.15-1.051,9.243,9.243,0,0,1,.934,0,1.047,1.047,0,0,1,1.079,1.115,1.033,1.033,0,0,1-1.115,1.007C-424.93-116.094-425.1-116.1-425.262-116.1Z" transform="translate(-48.078 -21.265)" fill="#21ffc7"/>
    <path id="路径_56" data-name="路径 56" d="M-421.308-103.623a9.791,9.791,0,0,0-7.721-5.96v-.772q0-13.87,0-27.741a5.35,5.35,0,0,0-3.97-5.462,6.242,6.242,0,0,0-1.542-.187q-22.212-.015-44.423-.006A5.324,5.324,0,0,0-484.5-138.2q-.005,23.774,0,47.547a5.3,5.3,0,0,0,5.538,5.546c5.706.014,11.413,0,17.119,0h.782c.046.177.092.329.123.484a5.636,5.636,0,0,0,4.594,4.755,1.066,1.066,0,0,1,.216.1h1.625a18.176,18.176,0,0,0,1.926-.687,5.852,5.852,0,0,0,2.565-2.642c.363-.673,3.344-6.065,3.9-6.93a1.089,1.089,0,0,1,.8-.377q4.527-.04,9.054,0a1.159,1.159,0,0,1,.845.408c.551.844,2.8,4.834,3.043,5.35.314.655.691,1.28,1.055,1.91a5.719,5.719,0,0,0,3.907,2.85,1.606,1.606,0,0,1,.278.116h1.625c.339-.094.686-.167,1.016-.284a5.761,5.761,0,0,0,3.837-4.182c.047-.178.1-.355.146-.533v-16A20.913,20.913,0,0,0-421.308-103.623Zm-61.049-35.018a3.181,3.181,0,0,1,3-2.974c.208-.013.417-.008.625-.008h43.873c2.436,0,3.691,1.255,3.693,3.693,0,.871,0,1.742,0,2.655h-51.206C-482.368-136.438-482.413-137.542-482.358-138.641Zm21.382,38.407c-.155,4.056-.043,8.122-.048,12.183,0,.246,0,.492,0,.819h-.784c-5.645,0-11.29-.051-16.933.025a3.45,3.45,0,0,1-3.658-3.632c.042-13.83.022-27.661.022-41.491v-.723h51.183c.011.236.029.457.029.678q0,11.06.011,22.12c0,.492-.083.705-.641.8a8.987,8.987,0,0,0-5.062,2.635,1.3,1.3,0,0,1-1.037.422c-1.937-.021-3.874.007-5.811-.026a1.507,1.507,0,0,1-.914-.371c-2.983-2.75-6.406-3.635-10.2-2.12A9.187,9.187,0,0,0-460.976-100.234Zm38.339,14.457a3.675,3.675,0,0,1-2.685,3.761,3.645,3.645,0,0,1-4.242-1.94c-1.24-2.214-2.486-4.426-3.7-6.655a3.423,3.423,0,0,0-3.29-1.942c-2.832.028-5.665.023-8.5,0a3.354,3.354,0,0,0-3.2,1.882q-1.907,3.474-3.859,6.923a3.6,3.6,0,0,1-3.622,1.837,3.629,3.629,0,0,1-3.076-2.8,3.581,3.581,0,0,1-.086-.8q-.01-3.967,0-7.935c0-.116.015-.233.021-.322.82.656,1.592,1.341,2.44,1.916a1.471,1.471,0,0,0,1.154.141c.8-.284.784-1.293.07-1.865a12.322,12.322,0,0,1-2.125-1.9,7.474,7.474,0,0,1,4.779-11.891,7.437,7.437,0,0,1,8.187,4.986,6.825,6.825,0,0,0,.224.648,1.046,1.046,0,0,0,1.291.6,1.017,1.017,0,0,0,.706-1.228c-.152-.618-.395-1.214-.613-1.864h3.987c-.182.51-.374,1-.532,1.506-.252.8,0,1.411.622,1.589.654.186,1.156-.157,1.414-.963a7.526,7.526,0,0,1,6.8-5.376,7.632,7.632,0,0,1,7.708,6.382,7.3,7.3,0,0,1-3.42,7.438c-.263.181-.614.437-.649.7a1.647,1.647,0,0,0,.282,1.123.869.869,0,0,0,1.244.115c.737-.537,1.442-1.119,2.146-1.7a2.466,2.466,0,0,0,.358-.48l.165.1v1.1Q-422.636-89.245-422.637-85.777Z" transform="translate(0)" fill="#fff"/>
  </g>
</svg>
