<svg xmlns="http://www.w3.org/2000/svg" width="64" height="62" viewBox="0 0 64 62">
  <g id="组_6" data-name="组 6" transform="translate(1242.059 468.974)">
    <path id="路径_57" data-name="路径 57" d="M-1196.9-329.417a4.586,4.586,0,0,1-4.534,4.446,4.336,4.336,0,0,1-2.864,4.071,4.526,4.526,0,0,1-4.977-1.155,4.652,4.652,0,0,1-4.81,1.821,4.364,4.364,0,0,1-3.435-3.778,10.062,10.062,0,0,1-1.161-.006,4.316,4.316,0,0,1-3.9-3.85c-.033-.286-.016-.528-.447-.587a4.286,4.286,0,0,1-4.047-4.642c0-.1,0-.2,0-.168a14.429,14.429,0,0,1-2.185-1.046,4.2,4.2,0,0,1-.951-5.942.708.708,0,0,0-.026-1.04c-1.644-2.136-3.242-4.306-4.894-6.437a9.485,9.485,0,0,0-1.381-1.319c-1.6-1.369-3.219-2.72-4.828-4.082-.885-.749-.944-1.312-.218-2.2q5.725-6.97,11.456-13.935a1.314,1.314,0,0,1,2.047-.342c1.97,1.223,3.923,2.471,5.909,3.668a8.135,8.135,0,0,0,1.911.843c1.913.554,3.844,1.055,5.776,1.545a2.118,2.118,0,0,0,1.024-.011c1.984-.534,3.956-1.113,5.939-1.651a5.593,5.593,0,0,1,1.406-.2c2.644-.019,5.289,0,7.933-.022a2,2,0,0,0,.981-.279c2.066-1.265,4.112-2.56,6.167-3.841.977-.609,1.484-.526,2.183.365q5.146,6.558,10.285,13.122c.708.9.645,1.447-.245,2.2-1.813,1.536-3.634,3.063-5.438,4.608a2.466,2.466,0,0,0-.6.762q-1.835,3.721-3.624,7.464a1,1,0,0,0-.034.766,4.359,4.359,0,0,1-3.775,6.407,1.528,1.528,0,0,0-.192.052,4.5,4.5,0,0,1-1.326,3.1A4.564,4.564,0,0,1-1196.9-329.417Zm-18.338-6.192a4.476,4.476,0,0,1,3.462,1.641,4.461,4.461,0,0,1,.891,3.665c3.171.951,4.333,3.079,3.384,6.081a.609.609,0,0,0,.134.51,2.318,2.318,0,0,0,.706.493,1.936,1.936,0,0,0,2.3-.589,1.847,1.847,0,0,0-.138-2.424c-.9-.941-1.837-1.84-2.758-2.757-.729-.727-.821-1.422-.262-1.984s1.322-.465,2.063.267c.881.87,1.757,1.745,2.637,2.616a1.91,1.91,0,0,0,1.882.551,1.87,1.87,0,0,0,.857-3.2c-1.455-1.491-2.954-2.941-4.432-4.41-.365-.364-.749-.715-1.075-1.11a1.182,1.182,0,0,1,.081-1.572,1.272,1.272,0,0,1,1.649-.138,3.946,3.946,0,0,1,.457.417q2.483,2.463,4.962,4.931a2,2,0,0,0,2.021.662,1.878,1.878,0,0,0,.783-3.258q-3.723-3.718-7.469-7.415a6.986,6.986,0,0,1-.718-.765,1.162,1.162,0,0,1,.157-1.564,1.262,1.262,0,0,1,1.552-.135,4.41,4.41,0,0,1,.6.537q3.8,3.771,7.6,7.543a1.971,1.971,0,0,0,2.883.142,1.886,1.886,0,0,0-.173-2.831q-7.2-7.074-14.411-14.132a1.608,1.608,0,0,0-.917-.383c-1.43-.13-2.87-.163-4.3-.323a.95.95,0,0,0-1.107.589q-1.341,2.422-2.763,4.8a4.436,4.436,0,0,1-4.907,2.089,4.321,4.321,0,0,1-2.776-6.417c1.44-2.556,2.928-5.085,4.395-7.627.121-.21.235-.425.389-.7-1.2-.317-2.329-.634-3.474-.9-.145-.034-.4.155-.524.3q-5.4,6.437-10.786,12.89c-.167.2-.325.407-.493.618l4.832,6.39a4.511,4.511,0,0,1,4.459-.842,4.35,4.35,0,0,1,2.9,3.376C-1217.493-340.356-1215.418-338.443-1215.241-335.609Zm24.729-6.923c1.069-2.2,2.084-4.328,3.141-6.434a.853.853,0,0,0-.115-1.082q-5.025-6.227-10.005-12.487a1.054,1.054,0,0,0-.94-.435c-2.5.016-5,0-7.5.014a3.974,3.974,0,0,0-1.041.142q-4.079,1.141-8.147,2.318a.964.964,0,0,0-.538.354c-1.552,2.659-3.1,5.322-4.612,8a1.806,1.806,0,0,0,.468,2.281,1.946,1.946,0,0,0,2.974-.615q1.678-2.87,3.319-5.762a1.5,1.5,0,0,1,1.574-.847q3.114.239,6.232.421a2.249,2.249,0,0,1,1.521.719q6.545,6.46,13.117,12.894C-1190.9-342.892-1190.738-342.743-1190.512-342.532Zm-38.165-24.544-10.378,12.626,4.421,3.73,11.024-13.189Zm38.355.016-5.069,3.17,9.933,12.408,4.419-3.735Zm-32.13,36.177a2.464,2.464,0,0,0,.891-.373c1.151-1.064,2.292-2.144,3.354-3.292a1.8,1.8,0,0,0-.18-2.505,1.889,1.889,0,0,0-2.555-.048q-1.638,1.511-3.18,3.121a1.707,1.707,0,0,0-.276,2.005A1.954,1.954,0,0,0-1222.452-330.883Zm2.227,2.516a2.14,2.14,0,0,0,1.268,1.754,1.81,1.81,0,0,0,2.081-.352c1.02-.964,2.03-1.94,3-2.95a1.848,1.848,0,0,0-.037-2.7,1.92,1.92,0,0,0-2.7.074c-.987.939-1.976,1.879-2.9,2.873A5.876,5.876,0,0,0-1220.226-328.367Zm10.558,2.09a1.689,1.689,0,0,0-.989-1.342,1.721,1.721,0,0,0-1.989.134,16.443,16.443,0,0,0-1.981,1.936,1.681,1.681,0,0,0-.13,2.011,1.813,1.813,0,0,0,1.748.96C-1211.818-322.613-1209.669-324.8-1209.667-326.277Zm-15.453-14.956a4.222,4.222,0,0,0-1.1.486,17.929,17.929,0,0,0-1.9,1.849,1.82,1.82,0,0,0,.19,2.5,1.924,1.924,0,0,0,2.553.073,19.6,19.6,0,0,0,1.716-1.685,1.8,1.8,0,0,0,.289-2.11A2.038,2.038,0,0,0-1225.12-341.233Z" transform="translate(0 -86.873)" fill="#fff"/>
    <path id="路径_58" data-name="路径 58" d="M-939.863-429.575c-.411-.319-.882-.52-1.051-.863a2.124,2.124,0,0,1,.037-1.2c.032-.172.249-.317.4-.461q4.037-3.969,8.082-7.931a2.287,2.287,0,0,1,.751-.522,1.135,1.135,0,0,1,1.341.384,1.113,1.113,0,0,1,.109,1.37,2.74,2.74,0,0,1-.439.514q-4.036,3.971-8.084,7.928A8.64,8.64,0,0,1-939.863-429.575Z" transform="translate(-263.441 -24.86)" fill="#21ffc7"/>
    <path id="路径_59" data-name="路径 59" d="M-1107.706-431.163a1.287,1.287,0,0,1-1.768,1.341,1.666,1.666,0,0,1-.453-.317q-4.2-4.114-8.388-8.238a1.842,1.842,0,0,1-.307-.383,1.177,1.177,0,0,1,.219-1.462,1.242,1.242,0,0,1,1.495-.178,2.64,2.64,0,0,1,.476.391q4.065,3.985,8.118,7.982A4.929,4.929,0,0,1-1107.706-431.163Z" transform="translate(-107.869 -24.915)" fill="#21ffc7"/>
    <path id="路径_60" data-name="路径 60" d="M-993.538-424.064c0,1.1.008,2.207,0,3.31a1.249,1.249,0,0,1-1.27,1.364,1.24,1.24,0,0,1-1.228-1.342q-.013-3.371,0-6.742a1.264,1.264,0,0,1,1.237-1.341,1.259,1.259,0,0,1,1.26,1.319C-993.528-426.353-993.538-425.208-993.538-424.064Z" transform="translate(-215.268 -35.229)" fill="#21ffc7"/>
    <path id="路径_61" data-name="路径 61" d="M-994.751-466.524a1.243,1.243,0,0,1-1.235-1.207,1.24,1.24,0,0,1,1.26-1.243,1.239,1.239,0,0,1,1.235,1.267A1.249,1.249,0,0,1-994.751-466.524Z" transform="translate(-215.32 0)" fill="#21ffc7"/>
  </g>
</svg>
