<svg xmlns="http://www.w3.org/2000/svg" width="63.99" height="64" viewBox="0 0 63.99 64">
  <g id="组_13" data-name="组 13" transform="translate(170.236 965.764)">
    <path id="路径_74" data-name="路径 74" d="M9.992-788.96a2.461,2.461,0,0,1,2.49,2.489,2.5,2.5,0,0,1-2.489,2.508,2.542,2.542,0,0,1-2.507-2.508A2.5,2.5,0,0,1,9.992-788.96Z" transform="translate(-148.101 -147.336)" fill="#21ffc7"/>
    <g id="组_12" data-name="组 12" transform="translate(-170.236 -965.764)">
      <path id="路径_75" data-name="路径 75" d="M69.185-735.9a6.478,6.478,0,0,0-7.142-.928.592.592,0,0,1-.792-.159c-2.276-2.291-6.315-6.336-8.611-8.607a11.275,11.275,0,0,1-2.735,2.714l9,9c-.073.159-.18.362-.262.575a6.511,6.511,0,0,0,1.066,6.914,6.365,6.365,0,0,0,6.669,2.258,6.375,6.375,0,0,0,5.069-5.037A6.36,6.36,0,0,0,69.185-735.9Zm-4.312,8.205a3.048,3.048,0,0,1-3-2.978,3.017,3.017,0,0,1,2.993-3.036,2.982,2.982,0,0,1,3.02,2.994A3.015,3.015,0,0,1,64.873-727.692Z" transform="translate(-13.214 782.288)" fill="#fff"/>
      <path id="路径_76" data-name="路径 76" d="M71.917-963.118a8.642,8.642,0,0,0-10.929-1.251,8.443,8.443,0,0,0-3.559,4.674,8.578,8.578,0,0,0,.878,7.152L46.475-940.7a11.276,11.276,0,0,1,2.747,2.718c1.889-1.865,6.073-6.059,7.949-7.937q1.921-1.921,3.832-3.837a8.766,8.766,0,0,0,11.8-2.393A8.688,8.688,0,0,0,71.917-963.118ZM65.7-952.184a4.94,4.94,0,0,1-4.922-4.933,4.929,4.929,0,0,1,4.962-4.888,4.932,4.932,0,0,1,4.859,4.929A4.938,4.938,0,0,1,65.7-952.184Z" transform="translate(-10.356 965.764)" fill="#fff"/>
      <path id="路径_77" data-name="路径 77" d="M-133.488-921.243a6.84,6.84,0,0,0,4.987-.618c2.533,2.538,6.572,6.575,9.075,9.114a11.278,11.278,0,0,1,2.68-2.674c-2.447-2.423-6.392-6.38-8.837-8.8-.246-.244-.177-.422-.093-.7a12.062,12.062,0,0,0,.612-2.463,6.707,6.707,0,0,0-5.76-7.092,6.791,6.791,0,0,0-7.61,5.421A6.79,6.79,0,0,0-133.488-921.243Zm1.7-9.544a2.983,2.983,0,0,1,3,3.012,3.018,3.018,0,0,1-3.026,3,3.049,3.049,0,0,1-2.987-2.994A3.019,3.019,0,0,1-131.792-930.786Z" transform="translate(143.83 939.74)" fill="#fff"/>
      <path id="路径_78" data-name="路径 78" d="M-143.195-740.52a11.276,11.276,0,0,1-2.773-2.736c-3.109,3.092-7.584,7.572-10.686,10.671-.087.087-.184.163-.271.24a8.71,8.71,0,0,0-11.665,2.26,8.657,8.657,0,0,0,.849,11.162,8.66,8.66,0,0,0,11.149,1,8.689,8.689,0,0,0,2.425-11.631Zm-18.371,20.426a4.936,4.936,0,0,1-4.916-4.874,4.931,4.931,0,0,1,4.9-4.949,4.938,4.938,0,0,1,4.917,4.937A4.933,4.933,0,0,1-161.566-720.093Z" transform="translate(170.236 780.342)" fill="#fff"/>
    </g>
    <path id="路径_79" data-name="路径 79" d="M-33.617-836.942a6.893,6.893,0,0,1,6.885,6.885,6.893,6.893,0,0,1-6.885,6.885,6.893,6.893,0,0,1-6.885-6.885,6.893,6.893,0,0,1,6.885-6.885m0-4.333a11.218,11.218,0,0,0-11.218,11.218,11.218,11.218,0,0,0,11.218,11.218A11.218,11.218,0,0,0-22.4-830.057a11.218,11.218,0,0,0-11.218-11.218Z" transform="translate(-104.5 -103.741)" fill="#21ffc7"/>
  </g>
</svg>
