<svg xmlns="http://www.w3.org/2000/svg" width="287.876" height="319.825" viewBox="0 0 287.876 319.825">
  <g id="组_14" data-name="组 14" transform="translate(-324.713 917.951)">
    <path id="路径_81" data-name="路径 81" d="M548.813-742.156v4.936q0,36.174,0,72.35c0,12.538-6.113,18.707-18.556,18.71q-61.478.015-122.957,0c-12.469,0-18.6-6.162-18.607-18.657q-.012-36.174,0-72.35v-4.989h-4.264c-13.995,0-27.991-.081-41.985.031-7.31.059-12.988-2.6-16.128-9.34-3.233-6.937-1.322-13.047,3.609-18.589Q392.961-840.9,455.951-911.791c7.285-8.188,18.294-8.225,25.576-.043q63.044,70.844,126.082,141.689c9.8,10.954,3.888,24.915-6.928,27.434a26.725,26.725,0,0,1-5.94.531c-13.745.044-27.491.023-41.236.024Z"/>
    <path id="路径_82" data-name="路径 82" d="M468.619-598.173c-21.241,0-42.483.089-63.724-.038-10.692-.064-17.92-9.224-15.7-19.466a15.7,15.7,0,0,1,13.523-12.23,19.784,19.784,0,0,1,2.241-.156q63.725-.012,127.449.02c7.892.011,14.042,4.816,15.8,11.881a15.765,15.765,0,0,1-15.117,19.926c-16.866.194-33.736.07-50.6.079q-6.935,0-13.87,0Z"/>
  </g>
</svg>
